<mxfile host="app.diagrams.net" modified="2022-03-13T19:26:36.386Z" agent="5.0 (Windows NT 10.0; Win64; x64) AppleWebKit/537.36 (KHTML, like Gecko) Chrome/99.0.4844.51 Safari/537.36" etag="YDilh6A6IBMB_rnO4lbA" version="17.1.2" type="github">
  <diagram id="fSJueWIgCiBAFNXciU3A" name="Page-1">
    <mxGraphModel dx="1540" dy="796" grid="1" gridSize="10" guides="1" tooltips="1" connect="1" arrows="1" fold="1" page="1" pageScale="1" pageWidth="827" pageHeight="1169" math="0" shadow="0">
      <root>
        <mxCell id="0" />
        <mxCell id="1" parent="0" />
        <mxCell id="hJhPngqoGngPgBKnKyxH-4" value="" style="group" vertex="1" connectable="0" parent="1">
          <mxGeometry x="10" y="20" width="40" height="1500" as="geometry" />
        </mxCell>
        <mxCell id="hJhPngqoGngPgBKnKyxH-2" value="" style="rounded=0;whiteSpace=wrap;html=1;" vertex="1" parent="hJhPngqoGngPgBKnKyxH-4">
          <mxGeometry x="2.3684757858670005e-15" width="40" height="1500" as="geometry" />
        </mxCell>
        <mxCell id="hJhPngqoGngPgBKnKyxH-3" value="Zaopatrzenie" style="text;html=1;strokeColor=none;fillColor=none;align=center;verticalAlign=middle;whiteSpace=wrap;rounded=0;rotation=-90;" vertex="1" parent="hJhPngqoGngPgBKnKyxH-4">
          <mxGeometry x="-19.999999999999996" y="701.2987012987014" width="80" height="58.44155844155845" as="geometry" />
        </mxCell>
        <mxCell id="hJhPngqoGngPgBKnKyxH-5" value="" style="group" vertex="1" connectable="0" parent="1">
          <mxGeometry x="170" y="30" width="560" height="190" as="geometry" />
        </mxCell>
        <mxCell id="hJhPngqoGngPgBKnKyxH-8" value="" style="group" vertex="1" connectable="0" parent="hJhPngqoGngPgBKnKyxH-5">
          <mxGeometry width="560" height="190" as="geometry" />
        </mxCell>
        <mxCell id="hJhPngqoGngPgBKnKyxH-6" value="" style="rounded=0;whiteSpace=wrap;html=1;" vertex="1" parent="hJhPngqoGngPgBKnKyxH-8">
          <mxGeometry width="560" height="190" as="geometry" />
        </mxCell>
        <mxCell id="hJhPngqoGngPgBKnKyxH-7" value="SK_01 - Produkcja szkÅ‚a" style="text;html=1;strokeColor=none;fillColor=none;align=center;verticalAlign=middle;whiteSpace=wrap;rounded=0;rotation=0;container=1;" vertex="1" parent="hJhPngqoGngPgBKnKyxH-8">
          <mxGeometry x="132.63288888888889" width="294.7342222222223" height="29.999999999999996" as="geometry">
            <mxRectangle x="145" width="160" height="20" as="alternateBounds" />
          </mxGeometry>
        </mxCell>
        <mxCell id="hJhPngqoGngPgBKnKyxH-38" style="edgeStyle=orthogonalEdgeStyle;rounded=0;orthogonalLoop=1;jettySize=auto;html=1;exitX=1;exitY=0.5;exitDx=0;exitDy=0;entryX=0;entryY=0.5;entryDx=0;entryDy=0;fontSize=20;endArrow=none;endFill=0;strokeWidth=2;" edge="1" parent="hJhPngqoGngPgBKnKyxH-8">
          <mxGeometry relative="1" as="geometry">
            <mxPoint x="112" y="65" as="sourcePoint" />
            <mxPoint x="179.99666666666667" y="65" as="targetPoint" />
          </mxGeometry>
        </mxCell>
        <mxCell id="hJhPngqoGngPgBKnKyxH-39" value="S_1" style="edgeLabel;html=1;align=center;verticalAlign=middle;resizable=0;points=[];fontSize=20;" vertex="1" connectable="0" parent="hJhPngqoGngPgBKnKyxH-38">
          <mxGeometry x="-0.2049" relative="1" as="geometry">
            <mxPoint as="offset" />
          </mxGeometry>
        </mxCell>
        <mxCell id="hJhPngqoGngPgBKnKyxH-41" value="S_2" style="edgeStyle=orthogonalEdgeStyle;rounded=0;orthogonalLoop=1;jettySize=auto;html=1;exitX=1;exitY=0.5;exitDx=0;exitDy=0;entryX=0;entryY=0.5;entryDx=0;entryDy=0;fontSize=20;endArrow=none;endFill=0;strokeWidth=2;" edge="1" parent="hJhPngqoGngPgBKnKyxH-8">
          <mxGeometry relative="1" as="geometry">
            <mxPoint x="267.10777777777776" y="65" as="sourcePoint" />
            <mxPoint x="323.55555555555566" y="65" as="targetPoint" />
          </mxGeometry>
        </mxCell>
        <mxCell id="hJhPngqoGngPgBKnKyxH-43" style="edgeStyle=orthogonalEdgeStyle;rounded=0;orthogonalLoop=1;jettySize=auto;html=1;exitX=1;exitY=0.5;exitDx=0;exitDy=0;entryX=0;entryY=0.5;entryDx=0;entryDy=0;fontSize=20;endArrow=none;endFill=0;strokeWidth=2;" edge="1" parent="hJhPngqoGngPgBKnKyxH-8">
          <mxGeometry relative="1" as="geometry">
            <mxPoint x="410.66666666666674" y="65" as="sourcePoint" />
            <mxPoint x="24.885555555555584" y="135" as="targetPoint" />
            <Array as="points">
              <mxPoint x="431" y="65" />
              <mxPoint x="431" y="100" />
              <mxPoint x="5" y="100" />
              <mxPoint x="5" y="135" />
            </Array>
          </mxGeometry>
        </mxCell>
        <mxCell id="hJhPngqoGngPgBKnKyxH-44" value="S_3" style="edgeLabel;html=1;align=center;verticalAlign=middle;resizable=0;points=[];fontSize=20;" vertex="1" connectable="0" parent="hJhPngqoGngPgBKnKyxH-43">
          <mxGeometry x="-0.0375" y="-2" relative="1" as="geometry">
            <mxPoint as="offset" />
          </mxGeometry>
        </mxCell>
        <mxCell id="hJhPngqoGngPgBKnKyxH-51" style="edgeStyle=orthogonalEdgeStyle;rounded=0;orthogonalLoop=1;jettySize=auto;html=1;exitX=1;exitY=0.5;exitDx=0;exitDy=0;entryX=0;entryY=0.5;entryDx=0;entryDy=0;fontSize=20;endArrow=none;endFill=0;strokeWidth=2;" edge="1" parent="hJhPngqoGngPgBKnKyxH-8">
          <mxGeometry relative="1" as="geometry">
            <mxPoint x="111.99666666666667" y="135" as="sourcePoint" />
            <mxPoint x="179.99555555555548" y="135" as="targetPoint" />
          </mxGeometry>
        </mxCell>
        <mxCell id="hJhPngqoGngPgBKnKyxH-52" value="S_4" style="edgeLabel;html=1;align=center;verticalAlign=middle;resizable=0;points=[];fontSize=20;" vertex="1" connectable="0" parent="hJhPngqoGngPgBKnKyxH-51">
          <mxGeometry x="0.0431" y="-2" relative="1" as="geometry">
            <mxPoint as="offset" />
          </mxGeometry>
        </mxCell>
        <mxCell id="hJhPngqoGngPgBKnKyxH-54" value="S_5" style="edgeStyle=orthogonalEdgeStyle;rounded=0;orthogonalLoop=1;jettySize=auto;html=1;exitX=1;exitY=0.5;exitDx=0;exitDy=0;entryX=0;entryY=0.5;entryDx=0;entryDy=0;fontSize=20;endArrow=none;endFill=0;strokeWidth=2;" edge="1" parent="hJhPngqoGngPgBKnKyxH-8">
          <mxGeometry relative="1" as="geometry">
            <mxPoint x="267.10666666666657" y="135" as="sourcePoint" />
            <mxPoint x="323.55555555555566" y="135" as="targetPoint" />
          </mxGeometry>
        </mxCell>
        <mxCell id="hJhPngqoGngPgBKnKyxH-55" style="edgeStyle=orthogonalEdgeStyle;rounded=0;orthogonalLoop=1;jettySize=auto;html=1;exitX=1;exitY=0.5;exitDx=0;exitDy=0;fontSize=20;endArrow=none;endFill=0;strokeWidth=2;" edge="1" parent="hJhPngqoGngPgBKnKyxH-8">
          <mxGeometry relative="1" as="geometry">
            <mxPoint x="610" y="95" as="targetPoint" />
            <mxPoint x="410.66666666666674" y="135" as="sourcePoint" />
            <Array as="points">
              <mxPoint x="490" y="135" />
              <mxPoint x="490" y="95" />
            </Array>
          </mxGeometry>
        </mxCell>
        <mxCell id="hJhPngqoGngPgBKnKyxH-56" value="S_6" style="edgeLabel;html=1;align=center;verticalAlign=middle;resizable=0;points=[];fontSize=20;" vertex="1" connectable="0" parent="hJhPngqoGngPgBKnKyxH-55">
          <mxGeometry x="0.7984" relative="1" as="geometry">
            <mxPoint x="-56" as="offset" />
          </mxGeometry>
        </mxCell>
        <mxCell id="hJhPngqoGngPgBKnKyxH-17" value="" style="group" vertex="1" connectable="0" parent="1">
          <mxGeometry x="110" y="240" width="449.99999999999994" height="190.00000000000003" as="geometry" />
        </mxCell>
        <mxCell id="hJhPngqoGngPgBKnKyxH-18" value="" style="rounded=0;whiteSpace=wrap;html=1;" vertex="1" parent="hJhPngqoGngPgBKnKyxH-17">
          <mxGeometry width="449.99999999999994" height="190.00000000000003" as="geometry" />
        </mxCell>
        <mxCell id="hJhPngqoGngPgBKnKyxH-19" value="FK_01 - Produkcja fasady" style="text;html=1;strokeColor=none;fillColor=none;align=center;verticalAlign=middle;whiteSpace=wrap;rounded=0;rotation=0;container=1;" vertex="1" parent="hJhPngqoGngPgBKnKyxH-17">
          <mxGeometry x="106.58" width="236.84" height="30" as="geometry">
            <mxRectangle x="145" width="160" height="20" as="alternateBounds" />
          </mxGeometry>
        </mxCell>
        <mxCell id="hJhPngqoGngPgBKnKyxH-20" value="" style="group" vertex="1" connectable="0" parent="1">
          <mxGeometry x="110" y="460" width="449.99999999999994" height="190.00000000000003" as="geometry" />
        </mxCell>
        <mxCell id="hJhPngqoGngPgBKnKyxH-21" value="" style="rounded=0;whiteSpace=wrap;html=1;" vertex="1" parent="hJhPngqoGngPgBKnKyxH-20">
          <mxGeometry width="449.99999999999994" height="190.00000000000003" as="geometry" />
        </mxCell>
        <mxCell id="hJhPngqoGngPgBKnKyxH-22" value="FK_02 - Produkcja okna drewnianego" style="text;html=1;strokeColor=none;fillColor=none;align=center;verticalAlign=middle;whiteSpace=wrap;rounded=0;rotation=0;container=1;" vertex="1" parent="hJhPngqoGngPgBKnKyxH-20">
          <mxGeometry x="106.58" width="236.84" height="30" as="geometry">
            <mxRectangle x="145" width="160" height="20" as="alternateBounds" />
          </mxGeometry>
        </mxCell>
        <mxCell id="hJhPngqoGngPgBKnKyxH-23" value="" style="group" vertex="1" connectable="0" parent="1">
          <mxGeometry x="110" y="680" width="449.99999999999994" height="190.00000000000003" as="geometry" />
        </mxCell>
        <mxCell id="hJhPngqoGngPgBKnKyxH-24" value="" style="rounded=0;whiteSpace=wrap;html=1;" vertex="1" parent="hJhPngqoGngPgBKnKyxH-23">
          <mxGeometry width="449.99999999999994" height="190.00000000000003" as="geometry" />
        </mxCell>
        <mxCell id="hJhPngqoGngPgBKnKyxH-25" value="FK_03 - Produkcja okna PVC" style="text;html=1;strokeColor=none;fillColor=none;align=center;verticalAlign=middle;whiteSpace=wrap;rounded=0;rotation=0;container=1;" vertex="1" parent="hJhPngqoGngPgBKnKyxH-23">
          <mxGeometry x="106.58" width="236.84" height="30" as="geometry">
            <mxRectangle x="145" width="160" height="20" as="alternateBounds" />
          </mxGeometry>
        </mxCell>
        <mxCell id="hJhPngqoGngPgBKnKyxH-26" value="" style="group" vertex="1" connectable="0" parent="1">
          <mxGeometry x="110" y="900" width="449.99999999999994" height="190.00000000000003" as="geometry" />
        </mxCell>
        <mxCell id="hJhPngqoGngPgBKnKyxH-27" value="" style="rounded=0;whiteSpace=wrap;html=1;" vertex="1" parent="hJhPngqoGngPgBKnKyxH-26">
          <mxGeometry width="449.99999999999994" height="190.00000000000003" as="geometry" />
        </mxCell>
        <mxCell id="hJhPngqoGngPgBKnKyxH-28" value="FK_04 - Produkcja okna aluminiowego" style="text;html=1;strokeColor=none;fillColor=none;align=center;verticalAlign=middle;whiteSpace=wrap;rounded=0;rotation=0;container=1;" vertex="1" parent="hJhPngqoGngPgBKnKyxH-26">
          <mxGeometry x="106.58" width="236.84" height="30" as="geometry">
            <mxRectangle x="145" width="160" height="20" as="alternateBounds" />
          </mxGeometry>
        </mxCell>
        <mxCell id="hJhPngqoGngPgBKnKyxH-29" value="" style="group" vertex="1" connectable="0" parent="1">
          <mxGeometry x="110" y="1120" width="449.99999999999994" height="190.00000000000003" as="geometry" />
        </mxCell>
        <mxCell id="hJhPngqoGngPgBKnKyxH-30" value="" style="rounded=0;whiteSpace=wrap;html=1;" vertex="1" parent="hJhPngqoGngPgBKnKyxH-29">
          <mxGeometry width="449.99999999999994" height="190.00000000000003" as="geometry" />
        </mxCell>
        <mxCell id="hJhPngqoGngPgBKnKyxH-31" value="FK_05 - Produkcja elementÃ³w mechanicznych" style="text;html=1;strokeColor=none;fillColor=none;align=center;verticalAlign=middle;whiteSpace=wrap;rounded=0;rotation=0;container=1;" vertex="1" parent="hJhPngqoGngPgBKnKyxH-29">
          <mxGeometry x="106.58" width="236.84" height="30" as="geometry">
            <mxRectangle x="145" width="160" height="20" as="alternateBounds" />
          </mxGeometry>
        </mxCell>
        <mxCell id="hJhPngqoGngPgBKnKyxH-32" value="" style="endArrow=none;html=1;rounded=0;exitX=1;exitY=0.933;exitDx=0;exitDy=0;exitPerimeter=0;strokeWidth=5;" edge="1" parent="1" source="hJhPngqoGngPgBKnKyxH-2">
          <mxGeometry width="50" height="50" relative="1" as="geometry">
            <mxPoint x="210" y="1350" as="sourcePoint" />
            <mxPoint x="1002.1389590992648" y="1420" as="targetPoint" />
          </mxGeometry>
        </mxCell>
        <mxCell id="hJhPngqoGngPgBKnKyxH-34" value="I_1" style="edgeStyle=orthogonalEdgeStyle;rounded=0;orthogonalLoop=1;jettySize=auto;html=1;exitX=0;exitY=0.5;exitDx=0;exitDy=0;entryX=1.062;entryY=0.05;entryDx=0;entryDy=0;entryPerimeter=0;fontSize=20;endArrow=none;endFill=0;strokeWidth=2;" edge="1" parent="1" target="hJhPngqoGngPgBKnKyxH-2">
          <mxGeometry relative="1" as="geometry">
            <mxPoint x="194.8888888888889" y="95" as="sourcePoint" />
          </mxGeometry>
        </mxCell>
      </root>
    </mxGraphModel>
  </diagram>
</mxfile>
